<mxfile host="app.diagrams.net" modified="2022-05-30T05:53:55.149Z" agent="5.0 (Windows NT 10.0; Win64; x64) AppleWebKit/537.36 (KHTML, like Gecko) Chrome/101.0.4951.54 Safari/537.36" etag="Vb1d-RTBWZBubzgF26Bi" version="18.1.2" type="github" pages="2">
  <diagram id="xNZThOojQkERqJLrx6__" name="Page-1">
    <mxGraphModel dx="2505" dy="872" grid="0" gridSize="10" guides="1" tooltips="1" connect="1" arrows="1" fold="1" page="0" pageScale="1" pageWidth="827" pageHeight="1169" math="0" shadow="0">
      <root>
        <mxCell id="0" />
        <mxCell id="1" parent="0" />
        <mxCell id="Tu78B5KctnX6iCStQSXn-1" value="&lt;font style=&quot;font-size: 18px;&quot;&gt;UI&lt;/font&gt;" style="rounded=1;whiteSpace=wrap;html=1;" parent="1" vertex="1">
          <mxGeometry x="-730" y="80" width="120" height="60" as="geometry" />
        </mxCell>
        <mxCell id="Tu78B5KctnX6iCStQSXn-2" value="&lt;font style=&quot;font-size: 18px;&quot;&gt;BACKEND&lt;/font&gt;" style="rounded=1;whiteSpace=wrap;html=1;" parent="1" vertex="1">
          <mxGeometry x="-450" y="80" width="120" height="60" as="geometry" />
        </mxCell>
        <mxCell id="Tu78B5KctnX6iCStQSXn-3" value="&lt;font style=&quot;font-size: 18px;&quot;&gt;DB&lt;/font&gt;" style="rounded=1;whiteSpace=wrap;html=1;" parent="1" vertex="1">
          <mxGeometry x="-170" y="80" width="120" height="60" as="geometry" />
        </mxCell>
        <mxCell id="Tu78B5KctnX6iCStQSXn-4" value="&lt;font style=&quot;font-size: 18px;&quot;&gt;oneM2M Server&lt;/font&gt;" style="rounded=1;whiteSpace=wrap;html=1;" parent="1" vertex="1">
          <mxGeometry x="80" y="80" width="150" height="60" as="geometry" />
        </mxCell>
        <mxCell id="Tu78B5KctnX6iCStQSXn-5" value="&lt;font style=&quot;font-size: 18px;&quot;&gt;MQTT Server&lt;/font&gt;" style="rounded=1;whiteSpace=wrap;html=1;" parent="1" vertex="1">
          <mxGeometry x="350" y="80" width="120" height="60" as="geometry" />
        </mxCell>
        <mxCell id="Tu78B5KctnX6iCStQSXn-6" value="&lt;font style=&quot;font-size: 18px;&quot;&gt;Device&lt;/font&gt;" style="rounded=1;whiteSpace=wrap;html=1;" parent="1" vertex="1">
          <mxGeometry x="600" y="80" width="120" height="60" as="geometry" />
        </mxCell>
        <mxCell id="Tu78B5KctnX6iCStQSXn-7" value="" style="rounded=1;whiteSpace=wrap;html=1;" parent="1" vertex="1">
          <mxGeometry x="-730" y="970" width="120" height="60" as="geometry" />
        </mxCell>
        <mxCell id="Tu78B5KctnX6iCStQSXn-8" value="" style="rounded=1;whiteSpace=wrap;html=1;" parent="1" vertex="1">
          <mxGeometry x="-450" y="970" width="120" height="60" as="geometry" />
        </mxCell>
        <mxCell id="Tu78B5KctnX6iCStQSXn-9" value="" style="rounded=1;whiteSpace=wrap;html=1;" parent="1" vertex="1">
          <mxGeometry x="-170" y="970" width="120" height="60" as="geometry" />
        </mxCell>
        <mxCell id="Tu78B5KctnX6iCStQSXn-10" value="" style="rounded=1;whiteSpace=wrap;html=1;" parent="1" vertex="1">
          <mxGeometry x="90" y="970" width="120" height="60" as="geometry" />
        </mxCell>
        <mxCell id="Tu78B5KctnX6iCStQSXn-11" value="" style="rounded=1;whiteSpace=wrap;html=1;" parent="1" vertex="1">
          <mxGeometry x="350" y="970" width="120" height="60" as="geometry" />
        </mxCell>
        <mxCell id="Tu78B5KctnX6iCStQSXn-12" value="" style="rounded=1;whiteSpace=wrap;html=1;" parent="1" vertex="1">
          <mxGeometry x="600" y="970" width="120" height="60" as="geometry" />
        </mxCell>
        <mxCell id="Tu78B5KctnX6iCStQSXn-13" value="" style="endArrow=none;html=1;rounded=0;exitX=0.5;exitY=0;exitDx=0;exitDy=0;entryX=0.5;entryY=1;entryDx=0;entryDy=0;" parent="1" source="Tu78B5KctnX6iCStQSXn-7" target="Tu78B5KctnX6iCStQSXn-1" edge="1">
          <mxGeometry width="50" height="50" relative="1" as="geometry">
            <mxPoint x="-100" y="660" as="sourcePoint" />
            <mxPoint x="-50" y="610" as="targetPoint" />
          </mxGeometry>
        </mxCell>
        <mxCell id="Tu78B5KctnX6iCStQSXn-14" value="" style="endArrow=none;html=1;rounded=0;exitX=0.5;exitY=0;exitDx=0;exitDy=0;entryX=0.5;entryY=1;entryDx=0;entryDy=0;" parent="1" edge="1">
          <mxGeometry width="50" height="50" relative="1" as="geometry">
            <mxPoint x="-390.83000000000004" y="970" as="sourcePoint" />
            <mxPoint x="-390.83000000000004" y="140" as="targetPoint" />
          </mxGeometry>
        </mxCell>
        <mxCell id="Tu78B5KctnX6iCStQSXn-15" value="" style="endArrow=none;html=1;rounded=0;exitX=0.5;exitY=0;exitDx=0;exitDy=0;entryX=0.5;entryY=1;entryDx=0;entryDy=0;" parent="1" edge="1">
          <mxGeometry width="50" height="50" relative="1" as="geometry">
            <mxPoint x="-110.82999999999993" y="970" as="sourcePoint" />
            <mxPoint x="-110.82999999999993" y="140" as="targetPoint" />
          </mxGeometry>
        </mxCell>
        <mxCell id="Tu78B5KctnX6iCStQSXn-16" value="" style="endArrow=none;html=1;rounded=0;exitX=0.5;exitY=0;exitDx=0;exitDy=0;entryX=0.5;entryY=1;entryDx=0;entryDy=0;" parent="1" edge="1">
          <mxGeometry width="50" height="50" relative="1" as="geometry">
            <mxPoint x="149.17000000000007" y="970" as="sourcePoint" />
            <mxPoint x="149.17000000000007" y="140" as="targetPoint" />
          </mxGeometry>
        </mxCell>
        <mxCell id="Tu78B5KctnX6iCStQSXn-17" value="" style="endArrow=none;html=1;rounded=0;exitX=0.5;exitY=0;exitDx=0;exitDy=0;entryX=0.5;entryY=1;entryDx=0;entryDy=0;" parent="1" edge="1">
          <mxGeometry width="50" height="50" relative="1" as="geometry">
            <mxPoint x="409.1700000000001" y="970" as="sourcePoint" />
            <mxPoint x="409.1700000000001" y="140" as="targetPoint" />
          </mxGeometry>
        </mxCell>
        <mxCell id="Tu78B5KctnX6iCStQSXn-18" value="" style="endArrow=none;html=1;rounded=0;exitX=0.5;exitY=0;exitDx=0;exitDy=0;entryX=0.5;entryY=1;entryDx=0;entryDy=0;" parent="1" edge="1">
          <mxGeometry width="50" height="50" relative="1" as="geometry">
            <mxPoint x="659.1700000000001" y="970" as="sourcePoint" />
            <mxPoint x="659.1700000000001" y="140" as="targetPoint" />
          </mxGeometry>
        </mxCell>
        <mxCell id="yyRxwgivtzoP-P6apAZJ-1" value="" style="endArrow=classic;html=1;rounded=0;fontSize=18;" parent="1" edge="1">
          <mxGeometry width="50" height="50" relative="1" as="geometry">
            <mxPoint x="-390" y="200" as="sourcePoint" />
            <mxPoint x="150" y="200" as="targetPoint" />
          </mxGeometry>
        </mxCell>
        <mxCell id="yyRxwgivtzoP-P6apAZJ-2" value="등록되어 있는 모든 발전소, 충전소 AE 생성" style="edgeLabel;html=1;align=center;verticalAlign=middle;resizable=0;points=[];fontSize=18;" parent="yyRxwgivtzoP-P6apAZJ-1" vertex="1" connectable="0">
          <mxGeometry x="-0.6103" relative="1" as="geometry">
            <mxPoint x="165" as="offset" />
          </mxGeometry>
        </mxCell>
        <mxCell id="yyRxwgivtzoP-P6apAZJ-3" value="" style="endArrow=classic;html=1;rounded=0;fontSize=18;" parent="1" edge="1">
          <mxGeometry width="50" height="50" relative="1" as="geometry">
            <mxPoint x="-389" y="454" as="sourcePoint" />
            <mxPoint x="151" y="454" as="targetPoint" />
          </mxGeometry>
        </mxCell>
        <mxCell id="yyRxwgivtzoP-P6apAZJ-4" value="등록된 모든 발전소, 충전소에 대한 AE에 Subscription 추가&lt;br&gt;subname = warningMonitor" style="edgeLabel;html=1;align=center;verticalAlign=middle;resizable=0;points=[];fontSize=18;" parent="yyRxwgivtzoP-P6apAZJ-3" vertex="1" connectable="0">
          <mxGeometry x="-0.5905" relative="1" as="geometry">
            <mxPoint x="159" as="offset" />
          </mxGeometry>
        </mxCell>
        <mxCell id="yyRxwgivtzoP-P6apAZJ-7" value="" style="endArrow=classic;html=1;rounded=0;fontSize=18;" parent="1" edge="1">
          <mxGeometry width="50" height="50" relative="1" as="geometry">
            <mxPoint x="-394" y="714" as="sourcePoint" />
            <mxPoint x="406" y="714" as="targetPoint" />
          </mxGeometry>
        </mxCell>
        <mxCell id="yyRxwgivtzoP-P6apAZJ-8" value="등록된 모든 발전소, 충전소에 대한 MQTT Subscription 추가" style="edgeLabel;html=1;align=center;verticalAlign=middle;resizable=0;points=[];fontSize=18;" parent="yyRxwgivtzoP-P6apAZJ-7" vertex="1" connectable="0">
          <mxGeometry x="-0.4803" y="-3" relative="1" as="geometry">
            <mxPoint x="162" as="offset" />
          </mxGeometry>
        </mxCell>
        <mxCell id="ukHE75vqF3dFra9WzfZD-1" value="스타트할 때 작업" style="text;html=1;strokeColor=none;fillColor=none;align=center;verticalAlign=middle;whiteSpace=wrap;rounded=0;fontSize=18;" parent="1" vertex="1">
          <mxGeometry x="-765" y="36" width="210" height="30" as="geometry" />
        </mxCell>
        <mxCell id="ukHE75vqF3dFra9WzfZD-2" value="등록되어 있을 경우, AE 생성 무시하고&amp;nbsp;&lt;br&gt;Subscription 삭제 후 추가&lt;br&gt;not found면 무시하고 추가" style="text;html=1;strokeColor=none;fillColor=none;align=center;verticalAlign=middle;whiteSpace=wrap;rounded=0;fontSize=18;" parent="1" vertex="1">
          <mxGeometry x="-284" y="231" width="338" height="64" as="geometry" />
        </mxCell>
        <mxCell id="btLS_yDtG8b81oWH4tYU-1" value="" style="endArrow=classic;html=1;rounded=0;fontSize=18;" parent="1" edge="1">
          <mxGeometry width="50" height="50" relative="1" as="geometry">
            <mxPoint x="-390" y="599" as="sourcePoint" />
            <mxPoint x="150" y="599" as="targetPoint" />
          </mxGeometry>
        </mxCell>
        <mxCell id="btLS_yDtG8b81oWH4tYU-2" value="등록된 모든 발전소, 충전소에 대한&lt;br&gt;&amp;nbsp;PWSGateway AE에 Subscription 추가&lt;br&gt;(subname = warningMonitor)" style="edgeLabel;html=1;align=center;verticalAlign=middle;resizable=0;points=[];fontSize=18;" parent="btLS_yDtG8b81oWH4tYU-1" vertex="1" connectable="0">
          <mxGeometry x="-0.5905" relative="1" as="geometry">
            <mxPoint x="159" as="offset" />
          </mxGeometry>
        </mxCell>
        <mxCell id="unjH1toSO-jY2Ce0YEA--1" value="" style="endArrow=classic;html=1;rounded=0;fontSize=18;" parent="1" edge="1">
          <mxGeometry width="50" height="50" relative="1" as="geometry">
            <mxPoint x="-390" y="363" as="sourcePoint" />
            <mxPoint x="151" y="363" as="targetPoint" />
          </mxGeometry>
        </mxCell>
        <mxCell id="unjH1toSO-jY2Ce0YEA--2" value="kma-demo-system" style="edgeLabel;html=1;align=center;verticalAlign=middle;resizable=0;points=[];fontSize=18;" parent="unjH1toSO-jY2Ce0YEA--1" vertex="1" connectable="0">
          <mxGeometry x="-0.339" y="-4" relative="1" as="geometry">
            <mxPoint x="99" y="-4" as="offset" />
          </mxGeometry>
        </mxCell>
      </root>
    </mxGraphModel>
  </diagram>
  <diagram id="9KDo578a58xUtOzjO2EJ" name="Page-2">
    <mxGraphModel dx="2870" dy="1059" grid="0" gridSize="10" guides="1" tooltips="1" connect="1" arrows="1" fold="1" page="0" pageScale="1" pageWidth="827" pageHeight="1169" math="0" shadow="0">
      <root>
        <mxCell id="0" />
        <mxCell id="1" parent="0" />
        <mxCell id="smahu6fzC_2yvF2nxRo8-1" value="&lt;font style=&quot;font-size: 18px;&quot;&gt;UI&lt;/font&gt;" style="rounded=1;whiteSpace=wrap;html=1;" parent="1" vertex="1">
          <mxGeometry x="-730" y="80" width="120" height="60" as="geometry" />
        </mxCell>
        <mxCell id="smahu6fzC_2yvF2nxRo8-2" value="&lt;font style=&quot;font-size: 18px;&quot;&gt;BACKEND&lt;/font&gt;" style="rounded=1;whiteSpace=wrap;html=1;" parent="1" vertex="1">
          <mxGeometry x="-450" y="80" width="120" height="60" as="geometry" />
        </mxCell>
        <mxCell id="smahu6fzC_2yvF2nxRo8-3" value="&lt;font style=&quot;font-size: 18px;&quot;&gt;DB&lt;/font&gt;" style="rounded=1;whiteSpace=wrap;html=1;" parent="1" vertex="1">
          <mxGeometry x="-170" y="80" width="120" height="60" as="geometry" />
        </mxCell>
        <mxCell id="smahu6fzC_2yvF2nxRo8-4" value="&lt;font style=&quot;font-size: 18px;&quot;&gt;oneM2M Server&lt;/font&gt;" style="rounded=1;whiteSpace=wrap;html=1;" parent="1" vertex="1">
          <mxGeometry x="80" y="80" width="150" height="60" as="geometry" />
        </mxCell>
        <mxCell id="smahu6fzC_2yvF2nxRo8-5" value="&lt;font style=&quot;font-size: 18px;&quot;&gt;MQTT Server&lt;/font&gt;" style="rounded=1;whiteSpace=wrap;html=1;" parent="1" vertex="1">
          <mxGeometry x="350" y="80" width="120" height="60" as="geometry" />
        </mxCell>
        <mxCell id="smahu6fzC_2yvF2nxRo8-6" value="&lt;font style=&quot;font-size: 18px;&quot;&gt;Device&lt;/font&gt;" style="rounded=1;whiteSpace=wrap;html=1;" parent="1" vertex="1">
          <mxGeometry x="600" y="80" width="120" height="60" as="geometry" />
        </mxCell>
        <mxCell id="smahu6fzC_2yvF2nxRo8-7" value="" style="rounded=1;whiteSpace=wrap;html=1;" parent="1" vertex="1">
          <mxGeometry x="-730" y="970" width="120" height="60" as="geometry" />
        </mxCell>
        <mxCell id="smahu6fzC_2yvF2nxRo8-8" value="" style="rounded=1;whiteSpace=wrap;html=1;" parent="1" vertex="1">
          <mxGeometry x="-450" y="970" width="120" height="60" as="geometry" />
        </mxCell>
        <mxCell id="smahu6fzC_2yvF2nxRo8-9" value="" style="rounded=1;whiteSpace=wrap;html=1;" parent="1" vertex="1">
          <mxGeometry x="-170" y="970" width="120" height="60" as="geometry" />
        </mxCell>
        <mxCell id="smahu6fzC_2yvF2nxRo8-10" value="" style="rounded=1;whiteSpace=wrap;html=1;" parent="1" vertex="1">
          <mxGeometry x="90" y="970" width="120" height="60" as="geometry" />
        </mxCell>
        <mxCell id="smahu6fzC_2yvF2nxRo8-11" value="" style="rounded=1;whiteSpace=wrap;html=1;" parent="1" vertex="1">
          <mxGeometry x="350" y="970" width="120" height="60" as="geometry" />
        </mxCell>
        <mxCell id="smahu6fzC_2yvF2nxRo8-12" value="" style="rounded=1;whiteSpace=wrap;html=1;" parent="1" vertex="1">
          <mxGeometry x="600" y="970" width="120" height="60" as="geometry" />
        </mxCell>
        <mxCell id="smahu6fzC_2yvF2nxRo8-13" value="" style="endArrow=none;html=1;rounded=0;exitX=0.5;exitY=0;exitDx=0;exitDy=0;entryX=0.5;entryY=1;entryDx=0;entryDy=0;" parent="1" source="smahu6fzC_2yvF2nxRo8-7" target="smahu6fzC_2yvF2nxRo8-1" edge="1">
          <mxGeometry width="50" height="50" relative="1" as="geometry">
            <mxPoint x="-100" y="660" as="sourcePoint" />
            <mxPoint x="-50" y="610" as="targetPoint" />
          </mxGeometry>
        </mxCell>
        <mxCell id="smahu6fzC_2yvF2nxRo8-14" value="" style="endArrow=none;html=1;rounded=0;exitX=0.5;exitY=0;exitDx=0;exitDy=0;entryX=0.5;entryY=1;entryDx=0;entryDy=0;" parent="1" edge="1">
          <mxGeometry width="50" height="50" relative="1" as="geometry">
            <mxPoint x="-390.8299999999999" y="970" as="sourcePoint" />
            <mxPoint x="-390.8299999999999" y="140" as="targetPoint" />
          </mxGeometry>
        </mxCell>
        <mxCell id="smahu6fzC_2yvF2nxRo8-15" value="" style="endArrow=none;html=1;rounded=0;exitX=0.5;exitY=0;exitDx=0;exitDy=0;entryX=0.5;entryY=1;entryDx=0;entryDy=0;" parent="1" edge="1">
          <mxGeometry width="50" height="50" relative="1" as="geometry">
            <mxPoint x="-110.82999999999993" y="970" as="sourcePoint" />
            <mxPoint x="-110.82999999999993" y="140" as="targetPoint" />
          </mxGeometry>
        </mxCell>
        <mxCell id="smahu6fzC_2yvF2nxRo8-16" value="" style="endArrow=none;html=1;rounded=0;exitX=0.5;exitY=0;exitDx=0;exitDy=0;entryX=0.5;entryY=1;entryDx=0;entryDy=0;" parent="1" edge="1">
          <mxGeometry width="50" height="50" relative="1" as="geometry">
            <mxPoint x="149.17000000000007" y="970" as="sourcePoint" />
            <mxPoint x="149.17000000000007" y="140" as="targetPoint" />
          </mxGeometry>
        </mxCell>
        <mxCell id="smahu6fzC_2yvF2nxRo8-17" value="" style="endArrow=none;html=1;rounded=0;exitX=0.5;exitY=0;exitDx=0;exitDy=0;entryX=0.5;entryY=1;entryDx=0;entryDy=0;" parent="1" edge="1">
          <mxGeometry width="50" height="50" relative="1" as="geometry">
            <mxPoint x="409.1700000000001" y="970" as="sourcePoint" />
            <mxPoint x="409.1700000000001" y="140" as="targetPoint" />
          </mxGeometry>
        </mxCell>
        <mxCell id="smahu6fzC_2yvF2nxRo8-18" value="" style="endArrow=none;html=1;rounded=0;exitX=0.5;exitY=0;exitDx=0;exitDy=0;entryX=0.5;entryY=1;entryDx=0;entryDy=0;" parent="1" edge="1">
          <mxGeometry width="50" height="50" relative="1" as="geometry">
            <mxPoint x="659.1700000000001" y="970" as="sourcePoint" />
            <mxPoint x="659.1700000000001" y="140" as="targetPoint" />
          </mxGeometry>
        </mxCell>
        <mxCell id="8SrfSK4ywMOAkdhTxCoi-1" value="" style="endArrow=classic;html=1;rounded=0;fontSize=18;" parent="1" edge="1">
          <mxGeometry width="50" height="50" relative="1" as="geometry">
            <mxPoint x="320" y="180" as="sourcePoint" />
            <mxPoint x="150" y="180" as="targetPoint" />
          </mxGeometry>
        </mxCell>
        <mxCell id="8SrfSK4ywMOAkdhTxCoi-2" value="CAP 메시지 수신" style="edgeLabel;html=1;align=center;verticalAlign=middle;resizable=0;points=[];fontSize=18;" parent="8SrfSK4ywMOAkdhTxCoi-1" vertex="1" connectable="0">
          <mxGeometry x="-0.712" relative="1" as="geometry">
            <mxPoint x="-56" as="offset" />
          </mxGeometry>
        </mxCell>
        <mxCell id="8SrfSK4ywMOAkdhTxCoi-3" value="" style="endArrow=classic;html=1;rounded=0;fontSize=18;" parent="1" edge="1">
          <mxGeometry width="50" height="50" relative="1" as="geometry">
            <mxPoint x="150" y="280" as="sourcePoint" />
            <mxPoint x="410" y="280" as="targetPoint" />
          </mxGeometry>
        </mxCell>
        <mxCell id="8SrfSK4ywMOAkdhTxCoi-4" value="MQTT Publish" style="edgeLabel;html=1;align=center;verticalAlign=middle;resizable=0;points=[];fontSize=18;" parent="8SrfSK4ywMOAkdhTxCoi-3" vertex="1" connectable="0">
          <mxGeometry x="0.6359" y="-1" relative="1" as="geometry">
            <mxPoint x="-93" as="offset" />
          </mxGeometry>
        </mxCell>
        <mxCell id="8SrfSK4ywMOAkdhTxCoi-5" value="" style="endArrow=classic;html=1;rounded=0;fontSize=18;" parent="1" edge="1">
          <mxGeometry width="50" height="50" relative="1" as="geometry">
            <mxPoint x="410" y="410" as="sourcePoint" />
            <mxPoint x="-390" y="410" as="targetPoint" />
          </mxGeometry>
        </mxCell>
        <mxCell id="8SrfSK4ywMOAkdhTxCoi-6" value="MQTT Notification(for PWSGateway)에 oneM2M 경보 데이터 받음&amp;nbsp;" style="edgeLabel;html=1;align=center;verticalAlign=middle;resizable=0;points=[];fontSize=18;" parent="8SrfSK4ywMOAkdhTxCoi-5" vertex="1" connectable="0">
          <mxGeometry x="0.4398" y="-3" relative="1" as="geometry">
            <mxPoint x="166" y="3" as="offset" />
          </mxGeometry>
        </mxCell>
        <mxCell id="8SrfSK4ywMOAkdhTxCoi-7" value="" style="endArrow=classic;html=1;rounded=0;fontSize=18;" parent="1" edge="1">
          <mxGeometry width="50" height="50" relative="1" as="geometry">
            <mxPoint x="-390" y="631" as="sourcePoint" />
            <mxPoint x="-110" y="631" as="targetPoint" />
          </mxGeometry>
        </mxCell>
        <mxCell id="8SrfSK4ywMOAkdhTxCoi-8" value="&lt;font style=&quot;font-size: 15px;&quot;&gt;oneM2M 경보 메시지 디비에 저장&lt;/font&gt;" style="edgeLabel;html=1;align=center;verticalAlign=middle;resizable=0;points=[];fontSize=18;" parent="8SrfSK4ywMOAkdhTxCoi-7" vertex="1" connectable="0">
          <mxGeometry x="-0.634" y="1" relative="1" as="geometry">
            <mxPoint x="89" as="offset" />
          </mxGeometry>
        </mxCell>
        <mxCell id="8SrfSK4ywMOAkdhTxCoi-9" value="" style="endArrow=classic;html=1;rounded=0;fontSize=15;" parent="1" edge="1">
          <mxGeometry width="50" height="50" relative="1" as="geometry">
            <mxPoint x="-390" y="770" as="sourcePoint" />
            <mxPoint x="-110" y="770" as="targetPoint" />
          </mxGeometry>
        </mxCell>
        <mxCell id="8SrfSK4ywMOAkdhTxCoi-10" value="mongodb geopatial로 경보&amp;nbsp;&lt;br&gt;geofence에 포함되는 발전소,&lt;br&gt;충전소 status UPDATE" style="edgeLabel;html=1;align=center;verticalAlign=middle;resizable=0;points=[];fontSize=15;" parent="8SrfSK4ywMOAkdhTxCoi-9" vertex="1" connectable="0">
          <mxGeometry x="0.7667" relative="1" as="geometry">
            <mxPoint x="-107" as="offset" />
          </mxGeometry>
        </mxCell>
        <mxCell id="8SrfSK4ywMOAkdhTxCoi-11" value="" style="endArrow=classic;html=1;rounded=0;fontSize=15;" parent="1" edge="1">
          <mxGeometry width="50" height="50" relative="1" as="geometry">
            <mxPoint x="-390" y="850" as="sourcePoint" />
            <mxPoint x="-670" y="850" as="targetPoint" />
          </mxGeometry>
        </mxCell>
        <mxCell id="8SrfSK4ywMOAkdhTxCoi-12" value="변경된 status UI에 적용 후&lt;br&gt;발전소, 충전소 애니매이션&lt;br&gt;효과 표시" style="edgeLabel;html=1;align=center;verticalAlign=middle;resizable=0;points=[];fontSize=15;" parent="8SrfSK4ywMOAkdhTxCoi-11" vertex="1" connectable="0">
          <mxGeometry x="0.1646" y="-1" relative="1" as="geometry">
            <mxPoint x="23" as="offset" />
          </mxGeometry>
        </mxCell>
        <mxCell id="8SrfSK4ywMOAkdhTxCoi-13" value="" style="endArrow=classic;html=1;rounded=0;fontSize=15;" parent="1" edge="1">
          <mxGeometry width="50" height="50" relative="1" as="geometry">
            <mxPoint x="150" y="500" as="sourcePoint" />
            <mxPoint x="410" y="500" as="targetPoint" />
          </mxGeometry>
        </mxCell>
        <mxCell id="8SrfSK4ywMOAkdhTxCoi-14" value="&lt;font style=&quot;font-size: 18px;&quot;&gt;MQTT Publish&lt;/font&gt;" style="edgeLabel;html=1;align=center;verticalAlign=middle;resizable=0;points=[];fontSize=15;" parent="8SrfSK4ywMOAkdhTxCoi-13" vertex="1" connectable="0">
          <mxGeometry x="-0.5179" y="5" relative="1" as="geometry">
            <mxPoint x="67" y="5" as="offset" />
          </mxGeometry>
        </mxCell>
        <mxCell id="8SrfSK4ywMOAkdhTxCoi-15" value="w" style="endArrow=classic;html=1;rounded=0;fontSize=18;" parent="1" edge="1">
          <mxGeometry width="50" height="50" relative="1" as="geometry">
            <mxPoint x="410" y="582" as="sourcePoint" />
            <mxPoint x="660" y="582" as="targetPoint" />
          </mxGeometry>
        </mxCell>
        <mxCell id="8SrfSK4ywMOAkdhTxCoi-16" value="MQTT Notification" style="edgeLabel;html=1;align=center;verticalAlign=middle;resizable=0;points=[];fontSize=18;" parent="8SrfSK4ywMOAkdhTxCoi-15" vertex="1" connectable="0">
          <mxGeometry x="-0.6472" y="2" relative="1" as="geometry">
            <mxPoint x="76" as="offset" />
          </mxGeometry>
        </mxCell>
        <mxCell id="8SrfSK4ywMOAkdhTxCoi-17" value="CAP 메시지 수신&amp;nbsp;" style="text;html=1;strokeColor=none;fillColor=none;align=center;verticalAlign=middle;whiteSpace=wrap;rounded=0;fontSize=18;" parent="1" vertex="1">
          <mxGeometry x="-730" y="20" width="190" height="30" as="geometry" />
        </mxCell>
        <mxCell id="hNuHbJyzZYlCpaZwHG8R-1" value="PWSGateway AE에 변경" style="text;html=1;strokeColor=none;fillColor=none;align=center;verticalAlign=middle;whiteSpace=wrap;rounded=0;fontSize=18;" parent="1" vertex="1">
          <mxGeometry x="3" y="167" width="148" height="30" as="geometry" />
        </mxCell>
      </root>
    </mxGraphModel>
  </diagram>
</mxfile>
